# xmcd
#
# Track frame offsets:
# 150
# 14986
# 31490
# 46782
# 61320
# 77637
# 92721
# 105237
# 119542
# 136808
# 152715
# 168726
# 183817
# 200716
# 216627
# 234228
# 245878
# 260500
# 277610
# 294888
# 312843
# 328335
# 340642
#
# Disc length: 4693 seconds
#
#
# Revision: 0
# Processed by: cddbd v1.5.2PL0 Copyright (c) Steve Scherf et al.
# Submitted via: FreeRIP 2.96 
#
DISCID=4c125317
DTITLE=Various Artist - Raízes do Século
DYEAR=1900
DGENRE=Sertanejo
TTITLE0=Dino Franco and Moraí - Caboclo na Cidade
TTITLE1=Pedro Bento and Zé da Estrada - Mágoa de Boiadeiro
TTITLE2=Luizinho e Limeira - Menino da Porteira
TTITLE3=Zé Carreiro and Carreirinho - Canoeiro
TTITLE4=Pedro Bento and Zé da Estrada - João de Barro
TTITLE5=Liu and Leu - Boiadeiro Errante
TTITLE6=Tonico and Tinoco - Brasil Caboclo
TTITLE7=Belmonte and Amaraí - Saudade de Minha Terra
TTITLE8=Sergio Reis - Filho Adotivo
TTITLE9=Juno and Julio - Filho Pródigo
TTITLE10=Daniel - Meu Reino Encantado
TTITLE11=Tão Carreiro and Pardinho - A Vaca Já Foi Pro Brejo
TTITLE12=Dino Franco and Moraí - Nelore Valente
TTITLE13=Carmem Silva - Casinha
TTITLE14=Duo Ciriema - ìndia
TTITLE15=Zé Tapera and Teodoro - Fuscão Preto
TTITLE16=Tonico and Tinoco - Chico Mineiro
TTITLE17=Palmeira and Sabiá - Couro de Boi
TTITLE18=Tonico and Tinoco - Tristeza do Jeca
TTITLE19=Tonico and Tinoco - Cabocla Tereza
TTITLE20=Sulino and Marrueiro - Peão da Cidade
TTITLE21=Biá and Dino Franco - Pedaço de Poema
TTITLE22=Tonico e Tinoco - Cavalo Preto
EXTD=
EXTT0=
EXTT1=
EXTT2=
EXTT3=
EXTT4=
EXTT5=
EXTT6=
EXTT7=
EXTT8=
EXTT9=
EXTT10=
EXTT11=
EXTT12=
EXTT13=
EXTT14=
EXTT15=
EXTT16=
EXTT17=
EXTT18=
EXTT19=
EXTT20=
EXTT21=
EXTT22=
PLAYORDER=
